<svg xmlns="http://www.w3.org/2000/svg" xmlns:xlink="http://www.w3.org/1999/xlink" id="Layer_1" x="0px" y="0px" width="100%" viewBox="0 0 416 384" xml:space="preserve">
<path fill="#000000" opacity="1.000000" stroke="none" d="M175.218842,349.848755   C139.905731,328.663788 104.932869,307.620300 69.858566,286.747253   C66.547050,284.776520 65.579239,282.638947 65.430809,278.825226   C64.523079,255.503555 65.422188,232.189056 65.343582,208.873642   C65.249313,180.906357 65.476601,152.938080 65.444809,124.970360   C65.441322,121.901123 66.590019,120.147758 69.149384,118.592804   C101.895699,98.697701 134.588806,78.714973 167.291946,58.748821   C179.520813,51.282772 191.854446,43.979008 203.904053,36.233719   C208.225266,33.456112 211.457458,33.160290 216.058670,35.977478   C260.670410,63.291973 305.423767,90.375755 350.211487,117.401382   C353.878967,119.614388 355.497406,122.015572 355.482849,126.492943   C355.318237,177.151764 355.339111,227.811447 355.461334,278.470520   C355.470917,282.448364 354.270050,284.797943 350.792480,286.869507   C308.860901,311.847809 267.436035,337.672028 225.174988,362.100983   C223.633377,362.992126 222.261505,364.405975 220.178665,364.214752   C218.287445,362.952576 218.879425,360.943573 218.877792,359.222046   C218.847946,327.726624 218.441956,296.223145 219.034180,264.738586   C219.425629,243.928711 222.677643,223.569000 235.467133,206.022430   C244.255356,193.965424 255.643661,185.269852 269.399475,179.775436   C278.520325,176.132370 287.972748,173.393082 297.427246,170.698395   C300.928650,169.700455 302.353058,170.761459 302.654449,174.257492   C305.838715,211.192078 292.740479,245.095322 253.893692,259.422363   C249.987366,260.863068 246.010742,262.132629 242.175247,263.740417   C238.258331,265.382324 235.375885,268.141510 235.359894,272.720886   C235.290115,292.717743 235.315079,312.714905 235.321304,332.711975   C235.321564,333.519287 235.257050,334.401581 236.194031,335.045715   C237.956497,335.445221 239.156021,334.061768 240.519409,333.242523   C272.076874,314.279877 303.602264,295.263794 335.193878,276.358307   C337.840057,274.774750 338.800751,272.861176 338.797180,269.885986   C338.742920,224.725784 338.738739,179.565491 338.806549,134.405350   C338.810913,131.512848 337.642517,129.835754 335.273956,128.408798   C294.746796,103.992615 254.238937,79.544296 213.773483,55.026066   C211.136154,53.428097 209.083450,53.501244 206.466827,55.090183   C170.586899,76.878220 134.650208,98.572754 98.729889,120.294281   C94.739494,122.707329 90.899467,125.416603 86.741364,127.490623   C83.010201,129.351700 82.152542,132.040237 82.162468,135.932846   C82.267914,177.260025 82.735130,218.598083 81.885307,259.908112   C81.655678,271.070404 85.439301,276.666046 94.686630,281.983459   C123.419861,298.505646 151.582428,316.020111 179.973633,333.137604   C181.375320,333.982666 182.845490,334.714203 184.313354,335.514740   C186.098236,333.693054 185.606766,331.597961 185.611908,329.713104   C185.661545,311.549286 185.660614,293.385193 185.615479,275.221313   C185.599564,268.812836 183.868591,266.375519 177.764755,263.950195   C171.731339,261.552826 165.473618,259.635864 159.644089,256.824341   C136.484818,245.654861 123.942909,226.715500 119.896049,201.657104   C118.663628,194.025864 118.998146,186.380737 119.022263,178.726959   C119.035934,174.386322 120.983543,172.714050 125.352951,173.977386   C139.475784,178.060760 153.253326,182.904419 165.766541,190.869049   C184.054413,202.509186 193.957886,219.614716 198.217270,240.383224   C200.529831,251.659103 201.457001,263.059479 201.379776,274.603729   C201.193604,302.431549 201.339844,330.261566 201.334595,358.090698   C201.334244,359.902527 201.645660,361.765991 200.436615,364.097778   C191.661606,360.267303 183.880615,354.619415 175.218842,349.848755  z"/>
<path fill="#000000" opacity="1.000000" stroke="none" d="M197.744995,119.842369   C198.457962,110.950439 203.574371,105.900200 210.905518,106.415024   C217.997009,106.913017 223.694534,113.318146 223.141891,120.171127   C222.568069,127.287155 216.248932,132.760254 209.196655,132.249329   C203.512878,131.837555 199.464752,127.596069 197.744995,119.842369  z"/>
<path fill="#000000" opacity="1.000000" stroke="none" d="M199.851364,155.124939   C205.374008,149.219086 210.639557,148.164978 216.557266,151.494110   C221.236252,154.126404 223.885071,159.731003 222.726303,164.567184   C221.535294,169.537918 218.550476,172.884583 213.564758,174.136795   C208.663101,175.367859 204.158508,174.436630 200.927917,170.332275   C197.322159,165.751282 196.574738,160.712265 199.851364,155.124939  z"/>
</svg>