<svg xmlns="http://www.w3.org/2000/svg" width="417" height="384" viewBox="0 0 417 384" preserveAspectRatio="xMidYMid meet">
<path d="M0 0 C137.61 0 275.22 0 417 0 C417 126.72 417 253.44 417 384 C279.39 384 141.78 384 0 384 C0 257.28 0 130.56 0 0 Z" fill="#FCFAF6" transform="translate(0,0)"/>
<path d="M0 0 C2.88651966 0.52177553 4.29537486 1.49757846 6.60546875 3.30078125 C11.10145647 6.61431752 15.7194166 9.50131629 20.54296875 12.30078125 C21.28345459 12.73173096 22.02394043 13.16268066 22.78686523 13.60668945 C24.27777149 14.47364602 25.76905997 15.33994564 27.26074219 16.20556641 C38.11808959 22.53016108 48.81554419 29.13114404 59.55184937 35.65805054 C68.17754018 40.90119649 76.82011589 46.11500128 85.48046875 51.30078125 C95.47346178 57.28695574 105.43125443 63.32636814 115.35546875 69.42578125 C116.42667969 70.08352539 117.49789063 70.74126953 118.6015625 71.41894531 C121.57252458 73.24318658 124.5429458 75.06830563 127.51296997 76.89407349 C128.69150141 77.61854491 129.87010955 78.34289157 131.04879761 79.06710815 C132.70217023 80.08320326 134.35500186 81.1001785 136.0078125 82.1171875 C136.96679443 82.70701416 137.92577637 83.29684082 138.91381836 83.90454102 C140.74755263 85.04702659 142.55780591 86.22733936 144.35546875 87.42578125 C144.35546875 141.21578125 144.35546875 195.00578125 144.35546875 250.42578125 C135.44546875 255.70578125 126.53546875 260.98578125 117.35546875 266.42578125 C112.63994754 269.2695817 107.92902363 272.11710831 103.23046875 274.98828125 C100.88476278 276.41773244 98.53818273 277.84574461 96.19140625 279.2734375 C95.3289328 279.79830246 95.3289328 279.79830246 94.44903564 280.33377075 C87.58285798 284.50897122 80.68630939 288.6333193 73.79077148 292.75976562 C68.32009133 296.0368964 62.85936345 299.32936201 57.4140625 302.6484375 C56.82810806 303.00557831 56.24215363 303.36271912 55.63844299 303.73068237 C55.05062546 304.08897125 54.46280792 304.44726013 53.85717773 304.81640625 C43.54854301 311.09933485 33.21266056 317.32828502 22.79296875 323.42578125 C21.78161865 324.0194751 20.77026855 324.61316895 19.72827148 325.22485352 C18.79958252 325.76553467 17.87089355 326.30621582 16.9140625 326.86328125 C16.10251709 327.33636719 15.29097168 327.80945313 14.45483398 328.296875 C12.35546875 329.42578125 12.35546875 329.42578125 9.35546875 330.42578125 C9.33221676 316.97727514 9.31448844 303.52877387 9.30365658 290.08025169 C9.29845575 283.83441834 9.29140939 277.58859883 9.2800293 271.34277344 C9.26910037 265.30623871 9.26317086 259.26971723 9.26059151 253.23317337 C9.25875519 250.93930478 9.25516961 248.64543684 9.24973869 246.35157394 C9.17660299 214.15744935 9.17660299 214.15744935 12.98046875 199.36328125 C13.24625732 198.32469971 13.5120459 197.28611816 13.78588867 196.21606445 C15.94913887 188.17672934 18.59157211 181.32555716 23.35546875 174.42578125 C24 173.49121094 24.64453125 172.55664062 25.30859375 171.59375 C35.69156804 157.84592293 50.2559262 148.5917176 66.52661133 143.32055664 C69.78981798 142.30844522 73.07152392 141.36849096 76.35546875 140.42578125 C78.98551059 139.58940779 81.61480377 138.75093287 84.2421875 137.90625 C86.66380213 137.35567958 88.87902607 137.3943757 91.35546875 137.42578125 C92.0802809 158.00598586 92.30529644 177.49632484 80.93579102 195.3918457 C71.28139265 209.67829483 58.30307012 219.94752757 42.26074219 226.24853516 C38.0030007 227.78753748 33.69344299 229.12995048 29.35546875 230.42578125 C28.36546875 230.75578125 27.37546875 231.08578125 26.35546875 231.42578125 C25.22044437 234.83085438 25.23530647 237.41798837 25.24194336 241.00854492 C25.24172432 242.00406624 25.24172432 242.00406624 25.24150085 243.0196991 C25.24219693 245.21108277 25.24997505 247.4023812 25.2578125 249.59375 C25.25967776 251.11403863 25.26110116 252.63432786 25.26210022 254.15461731 C25.26591687 258.15442568 25.2757399 262.15419769 25.2868042 266.1539917 C25.29703662 270.23611967 25.30160177 274.31825352 25.30664062 278.40039062 C25.31736292 286.40887084 25.33442914 294.41732152 25.35546875 302.42578125 C35.63811607 296.40631129 45.87462655 290.32431052 56.04296875 284.11328125 C65.30432924 278.46883544 74.60201944 272.89257616 83.95410156 267.39941406 C92.99274032 262.07728804 101.95051103 256.62340008 110.90429688 251.16015625 C111.4801503 250.80921402 112.05600372 250.45827179 112.64930725 250.09669495 C114.21326744 249.14337488 115.77646187 248.18879888 117.33959961 247.23413086 C120.64957317 245.24943288 124.00457311 243.34057876 127.35546875 241.42578125 C127.35546875 193.57578125 127.35546875 145.72578125 127.35546875 96.42578125 C120.75546875 92.46578125 114.15546875 88.50578125 107.35546875 84.42578125 C99.41263614 79.59101357 91.47964284 74.74321704 83.57421875 69.84765625 C69.98578346 61.44199978 56.31649016 53.19300893 42.55615234 45.07226562 C32.7143148 39.26104395 22.90489231 33.40438086 13.32421875 27.16796875 C12.5765625 26.6884375 11.82890625 26.20890625 11.05859375 25.71484375 C9.54989456 24.74649427 8.05023368 23.76395787 6.55859375 22.76953125 C5.82125 22.30289063 5.08390625 21.83625 4.32421875 21.35546875 C3.67904297 20.93507324 3.03386719 20.51467773 2.36914062 20.08154297 C0.29931295 19.20126985 0.29931295 19.20126985 -2.04956055 20.10229492 C-4.82640635 21.51854114 -7.47809286 23.03713733 -10.1328125 24.671875 C-11.2153833 25.33469482 -12.2979541 25.99751465 -13.41333008 26.68041992 C-14.27687607 27.21244522 -14.27687607 27.21244522 -15.15786743 27.75521851 C-18.28348192 29.68021106 -21.41719579 31.5919257 -24.55078125 33.50390625 C-25.20847 33.90546432 -25.86615875 34.3070224 -26.54377747 34.7207489 C-33.97588248 39.25065958 -41.4658163 43.68208408 -48.95703125 48.11328125 C-60.90007751 55.18364271 -72.78533408 62.34101514 -84.625 69.58349609 C-88.04394114 71.66947037 -91.46861502 73.7458219 -94.89453125 75.8203125 C-96.1526698 76.58251866 -97.41080782 77.3447257 -98.66894531 78.10693359 C-100.50121185 79.21687001 -102.33366928 80.32648279 -104.16687012 81.43487549 C-111.01941708 85.5786196 -117.81543868 89.78063153 -124.50878906 94.17797852 C-126.64453125 95.42578125 -126.64453125 95.42578125 -128.64453125 95.42578125 C-128.31453125 143.60578125 -127.98453125 191.78578125 -127.64453125 241.42578125 C-106.54427091 254.27224564 -106.54427091 254.27224564 -85.33203125 266.92578125 C-83.08057349 268.25624701 -80.82926986 269.58697363 -78.578125 270.91796875 C-77.54671387 271.52737305 -76.51530273 272.13677734 -75.45263672 272.76464844 C-64.55744504 279.2096914 -53.74344971 285.78771623 -42.93652344 292.37939453 C-42.0087207 292.94513184 -41.08091797 293.51086914 -40.125 294.09375 C-39.30926514 294.59156982 -38.49353027 295.08938965 -37.65307617 295.60229492 C-33.32584359 298.22504102 -28.98492593 300.82489105 -24.64453125 303.42578125 C-24.65941192 294.64571549 -24.70103027 285.86629945 -24.77662182 277.08654499 C-24.81088728 273.00952639 -24.83600101 268.9328823 -24.84008789 264.85571289 C-24.84437195 260.91962041 -24.87284201 256.98437269 -24.91796303 253.04854393 C-24.93093486 251.5483308 -24.93524676 250.04801656 -24.93068504 248.54775429 C-24.92577607 246.4427781 -24.951876 244.34026827 -24.98510742 242.2355957 C-24.99510017 240.44023125 -24.99510017 240.44023125 -25.0052948 238.6085968 C-25.41871425 235.2269755 -25.41871425 235.2269755 -28.06074524 232.56071472 C-30.40191566 230.62624992 -31.7728306 229.68857674 -34.64453125 228.92578125 C-50.21887512 224.26900069 -64.14046298 217.55562728 -74.76953125 204.89453125 C-84.27815314 192.36043875 -90.04011835 178.84700932 -90.80761719 163.07421875 C-90.97422384 155.52138406 -90.87264322 147.97628754 -90.64453125 140.42578125 C-89.55785156 140.58433594 -88.47117188 140.74289063 -87.3515625 140.90625 C-85.01814347 141.2332729 -82.67783889 141.51697864 -80.33203125 141.73828125 C-75.41680207 142.65467991 -71.20812014 144.41243321 -66.64453125 146.42578125 C-66.02223633 146.69277832 -65.39994141 146.95977539 -64.75878906 147.23486328 C-48.40753282 154.29332483 -33.41185598 163.24071306 -23.51953125 178.48828125 C-12.79186226 196.76114768 -9.44984638 216.16157296 -9.53100586 237.22143555 C-9.53085983 238.23741318 -9.53071381 239.25339081 -9.53056335 240.30015564 C-9.53125311 243.6167931 -9.53900105 246.9333725 -9.546875 250.25 C-9.54874252 252.56598378 -9.55016484 254.88196795 -9.55116272 257.19795227 C-9.55496162 263.26249299 -9.5647692 269.32700936 -9.5758667 275.39154053 C-9.58613758 281.59240388 -9.59067245 287.7932712 -9.59570312 293.99414062 C-9.60639406 306.13803147 -9.62343858 318.28190433 -9.64453125 330.42578125 C-13.33617069 328.98715936 -16.64666641 327.35670193 -20.0546875 325.328125 C-21.64095947 324.38658569 -21.64095947 324.38658569 -23.25927734 323.42602539 C-24.4086056 322.73857266 -25.55785463 322.05098744 -26.70703125 321.36328125 C-27.91346411 320.64491597 -29.12000926 319.92673922 -30.32666016 319.20874023 C-39.34017279 313.83731814 -48.30573369 308.38789879 -57.26370239 302.92453003 C-66.16919493 297.49577252 -75.13458686 292.17914926 -84.14453125 286.92578125 C-98.41980118 278.60096589 -112.54478235 270.04452361 -126.64453125 261.42578125 C-132.58453125 257.79578125 -138.52453125 254.16578125 -144.64453125 250.42578125 C-144.64453125 196.63578125 -144.64453125 142.84578125 -144.64453125 87.42578125 C-122.86837833 73.67242151 -122.86837833 73.67242151 -112.20703125 67.23828125 C-111.02112293 66.52062024 -109.83533543 65.80275954 -108.6496582 65.0847168 C-106.20407468 63.60389071 -103.75799397 62.12389141 -101.31152344 60.64453125 C-95.90363 57.37355549 -90.50178588 54.09261632 -85.099823 50.81185913 C-83.33171003 49.73808617 -81.56345414 48.66454893 -79.79516602 47.59106445 C-71.65329529 42.64797093 -63.51567979 37.69792025 -55.38134766 32.74243164 C-50.10955115 29.53169545 -44.83402041 26.3272282 -39.5546875 23.12890625 C-38.33015151 22.38665056 -37.10562354 21.64438164 -35.88110352 20.90209961 C-33.45676337 19.43258219 -31.03130733 17.96492937 -28.60522461 16.49829102 C-23.53155413 13.42678489 -18.47185097 10.3413959 -13.48828125 7.125 C-12.74892334 6.6496582 -12.00956543 6.17431641 -11.24780273 5.68457031 C-9.9411982 4.83861461 -8.64057044 3.9833099 -7.34790039 3.11621094 C-4.89038063 1.52470123 -2.90755125 0.46812864 0 0 Z" fill="#1B4632" transform="translate(209.64453125,32.57421875)"/>
<path d="M0 0 C1.63001953 0.23783203 1.63001953 0.23783203 3.29296875 0.48046875 C5.62638778 0.80749165 7.96669236 1.09119739 10.3125 1.3125 C15.22772918 2.22889866 19.43641111 3.98665196 24 6 C24.62229492 6.26699707 25.24458984 6.53399414 25.88574219 6.80908203 C42.23699843 13.86754358 57.23267527 22.81493181 67.125 38.0625 C77.85266899 56.33536643 81.19468487 75.73579171 81.11352539 96.7956543 C81.11367142 97.81163193 81.11381744 98.82760956 81.1139679 99.87437439 C81.11327814 103.19101185 81.1055302 106.50759125 81.09765625 109.82421875 C81.09578873 112.14020253 81.09436641 114.4561867 81.09336853 116.77217102 C81.08956963 122.83671174 81.07976205 128.90122811 81.06866455 134.96575928 C81.05839367 141.16662263 81.0538588 147.36748995 81.04882812 153.56835938 C81.03813719 165.71225022 81.02109267 177.85612308 81 190 C80.34 189.67 79.68 189.34 79 189 C79.33 168.21 79.66 147.42 80 126 C79.34 126 78.68 126 78 126 C76.48171398 121.15160666 75.03309936 116.37827823 74.125 111.375 C73.00745507 106.11565704 73.00745507 106.11565704 68 99 C67.67 120.45 67.34 141.9 67 164 C66.34 163.67 65.68 163.34 65 163 C65.01110306 162.15919388 65.02220612 161.31838776 65.03364563 160.45210266 C65.13390105 152.52174806 65.20999184 144.59160679 65.25906086 136.66076374 C65.28513629 132.58354433 65.32049537 128.50684927 65.37719727 124.42993164 C65.43159253 120.49415637 65.461436 116.55888488 65.47438622 112.62276268 C65.48361281 111.1224188 65.5016309 109.62210198 65.52865028 108.12197304 C65.56504452 106.01731804 65.56994161 103.91473435 65.56762695 101.80981445 C65.57873001 100.61290482 65.58983307 99.41599518 65.60127258 98.18281555 C65.2317129 94.79990886 65.2317129 94.79990886 62.58952332 92.13493347 C60.24604616 90.20285285 58.87190203 89.26284898 56 88.5 C40.42565613 83.84321944 26.50406827 77.12984603 15.875 64.46875 C6.36637811 51.9346575 0.6044129 38.42122807 -0.16308594 22.6484375 C-0.32969259 15.09560281 -0.22811197 7.55050629 0 0 Z" fill="#2F6A4D" transform="translate(119,173)"/>
<path d="M0 0 C0 9.24 0 18.48 0 28 C-0.33 28 -0.66 28 -1 28 C-1.1953125 26.046875 -1.390625 24.09375 -1.5859375 22.140625 C-2.03532965 19.8173524 -2.85774238 18.0616357 -4 16 C-4.51949219 16.59167969 -5.03898437 17.18335938 -5.57421875 17.79296875 C-13.00777264 26.2158311 -20.58731048 34.0122938 -29.88671875 40.375 C-36.64026053 45.26287587 -42.47839208 50.9553975 -48.35327148 56.85229492 C-50.18155345 58.68155029 -52.03017665 60.48836723 -53.88085938 62.29492188 C-61.28016942 69.61902242 -67.03297804 76.77934255 -72 86 C-72.4112915 86.74741455 -72.82258301 87.4948291 -73.24633789 88.26489258 C-74.18090308 90.01119945 -75.06244625 91.78562615 -75.9375 93.5625 C-76.78634766 95.26599609 -76.78634766 95.26599609 -77.65234375 97.00390625 C-78.72230242 99.38262597 -79.50841809 101.45497465 -80 104 C-80.66 104 -81.32 104 -82 104 C-82.06235331 98.66532823 -82.05263714 93.33471291 -82 88 C-81.99613281 86.89914062 -81.99226562 85.79828125 -81.98828125 84.6640625 C-81.40788875 68.4530995 -77.28555123 50.44870127 -68 37 C-67.35546875 36.06542969 -66.7109375 35.13085938 -66.046875 34.16796875 C-55.66390071 20.42014168 -41.09954255 11.16593635 -24.82885742 5.89477539 C-21.56565077 4.88266397 -18.28394483 3.94270971 -15 3 C-12.36995816 2.16362654 -9.74066498 1.32515162 -7.11328125 0.48046875 C-5 0 -5 0 0 0 Z" fill="#417357" transform="translate(301,170)"/>
<path d="M0 0 C2.33984375 0.46484375 2.33984375 0.46484375 5.33984375 2.27734375 C7.52184943 4.66391246 9.17987271 6.48649453 9.7109375 9.734375 C9.88588079 16.43367381 9.88588079 16.43367381 8.32421875 19.3828125 C6.25829865 21.90298612 4.04647659 23.66042186 1.33984375 25.46484375 C-1.67425422 25.80514513 -3.75444368 26.0221037 -6.66015625 25.46484375 C-9.47265625 23.27734375 -9.47265625 23.27734375 -11.66015625 20.46484375 C-12.27890625 19.72234375 -12.89765625 18.97984375 -13.53515625 18.21484375 C-14.94472988 14.76921931 -14.93345823 12.3404644 -14.34765625 8.69140625 C-13.37963528 5.55633833 -12.0784595 3.64445334 -9.60546875 1.5 C-6.4233479 -0.19329724 -3.54823702 -0.21876349 0 0 Z" fill="#A8400C" transform="translate(211.66015625,105.53515625)"/>
<path d="M0 0 C3.50689785 1.08057533 5.93187271 2.89717052 8.55078125 5.43359375 C10.33400652 8.02570471 10.68531356 9.63422181 10.81640625 12.76171875 C10.53016914 16.12500477 10.05368144 17.65853271 8.31640625 20.63671875 C4.73307292 23.82190394 4.73307292 23.82190394 2.06640625 24.63671875 C-4.53020839 25.38149782 -4.53020839 25.38149782 -7.71484375 23.69140625 C-10.07236914 21.85392322 -11.79817078 19.85457309 -13.37109375 17.32421875 C-14.16493831 13.53140583 -14.25201356 10.27300563 -12.93359375 6.63671875 C-9.67820833 2.18643752 -5.61720991 -0.49466623 0 0 Z" fill="#A63E09" transform="translate(210.93359375,148.36328125)"/>
<path d="M0 0 C0.66 0 1.32 0 2 0 C1.83761904 0.69469234 1.67523808 1.38938467 1.50793648 2.10512829 C0.95852472 5.23637921 0.87410019 8.13882861 0.87301636 11.31794739 C0.87019653 12.59221085 0.86737671 13.8664743 0.86447144 15.17935181 C0.8664156 16.58416762 0.86846376 17.9889833 0.87060547 19.39379883 C0.86924983 20.87907453 0.86746898 22.3643499 0.86529541 23.84962463 C0.86073925 27.87867122 0.8625035 31.90769218 0.8656745 35.93673921 C0.86820888 40.15840361 0.86585741 44.38006585 0.86428833 48.60173035 C0.86246919 55.69420769 0.86486563 62.78667463 0.86962891 69.87915039 C0.87506474 78.06736075 0.87331277 86.25554618 0.8678025 94.44375592 C0.86325658 101.48171762 0.86262825 108.51967184 0.86524117 115.55763453 C0.86679661 119.7574957 0.86701794 123.95734518 0.86370468 128.15720558 C0.86080471 132.10934419 0.86284061 136.06145087 0.86859894 140.01358604 C0.86991543 141.45991844 0.8695514 142.90625354 0.86733627 144.35258484 C0.85765371 151.3199579 0.89842616 158.11142185 2 165 C1.01 164.67 0.02 164.34 -1 164 C-1.023327 142.76471249 -1.04097819 121.52942708 -1.05181217 100.29412937 C-1.05697555 90.43493281 -1.06401905 80.5757442 -1.07543945 70.71655273 C-1.08538501 62.12652183 -1.09185312 53.53649669 -1.09408849 44.94646019 C-1.09539582 40.39518805 -1.09848305 35.84393236 -1.10573006 31.29266548 C-1.11248825 27.01395181 -1.11461737 22.73526147 -1.11310768 18.45654297 C-1.1133841 16.88149323 -1.11539041 15.30644277 -1.11920547 13.73139763 C-1.1241396 11.59035748 -1.12299935 9.44940685 -1.12025452 7.30836487 C-1.12117631 6.10726861 -1.1220981 4.90617235 -1.12304783 3.66867924 C-1.08244205 2.78801509 -1.04183626 1.90735094 -1 1 C-0.67 0.67 -0.34 0.34 0 0 Z" fill="#264638" transform="translate(66,119)"/>
<path d="M0 0 C0.33 0 0.66 0 1 0 C1.33 21.12 1.66 42.24 2 64 C2.66 64 3.32 64 4 64 C4.33 64.99 4.66 65.98 5 67 C2.525 67.99 2.525 67.99 0 69 C0 46.23 0 23.46 0 0 Z" fill="#EFF3F0" transform="translate(234,267)"/>
<path d="M0 0 C0.33 0 0.66 0 1 0 C1 22.44 1 44.88 1 68 C0.01 67.67 -0.98 67.34 -2 67 C-1.505 66.01 -1.505 66.01 -1 65 C-0.87951849 62.93776648 -0.82259073 60.87171371 -0.79467773 58.80615234 C-0.77473251 57.50495453 -0.75478729 56.20375671 -0.73423767 54.86312866 C-0.71725327 53.4373995 -0.70037447 52.01166907 -0.68359375 50.5859375 C-0.66302479 49.13147387 -0.64202834 47.67701623 -0.62062073 46.2225647 C-0.56539396 42.39213912 -0.5159874 38.56165955 -0.46777344 34.73114014 C-0.4175628 30.8233153 -0.36187446 26.915569 -0.30664062 23.0078125 C-0.19905167 15.33860815 -0.09760838 7.66933855 0 0 Z" fill="#DFE4DC" transform="translate(184,268)"/>
<path d="M0 0 C0.66 0 1.32 0 2 0 C2 9.24 2 18.48 2 28 C1.67 28 1.34 28 1 28 C0.896875 26.7625 0.79375 25.525 0.6875 24.25 C0.33850065 21.35535832 0.01914681 20.0306349 -1.5625 17.5 C-2.036875 17.005 -2.51125 16.51 -3 16 C-2.5359375 14.824375 -2.5359375 14.824375 -2.0625 13.625 C-0.73664193 9.10148422 -0.35188915 4.68568186 0 0 Z" fill="#367155" transform="translate(299,170)"/>
<path d="M0 0 C2.31 0.33 4.62 0.66 7 1 C5.68212715 2.02028865 4.34789347 3.01971384 3 4 C2.67 4 2.34 4 2 4 C1.67 11.26 1.34 18.52 1 26 C0.67 26 0.34 26 0 26 C0 17.42 0 8.84 0 0 Z" fill="#3A775A" transform="translate(119,173)"/>
<path d="M0 0 C0.66 0 1.32 0 2 0 C1.84152588 0.71567139 1.68305176 1.43134277 1.51977539 2.16870117 C1.01543043 4.91594802 0.79773833 7.5123923 0.68359375 10.30078125 C0.64169922 11.27724609 0.59980469 12.25371094 0.55664062 13.25976562 C0.51732422 14.26716797 0.47800781 15.27457031 0.4375 16.3125 C0.39431641 17.33923828 0.35113281 18.36597656 0.30664062 19.42382812 C0.20093175 21.94909569 0.09883532 24.47445562 0 27 C-0.33 27 -0.66 27 -1 27 C-1.02886537 22.68751391 -1.04675255 18.37505238 -1.0625 14.0625 C-1.07087891 12.83080078 -1.07925781 11.59910156 -1.08789062 10.33007812 C-1.09111328 9.16025391 -1.09433594 7.99042969 -1.09765625 6.78515625 C-1.10289307 5.70113525 -1.10812988 4.61711426 -1.11352539 3.50024414 C-1.07606201 2.67516357 -1.03859863 1.85008301 -1 1 C-0.67 0.67 -0.34 0.34 0 0 Z" fill="#284A3B" transform="translate(66,119)"/>
<path d="M0 0 C3.91121498 0.68936071 7.55508596 1.78250181 11.3125 3.0625 C12.38113281 3.42472656 13.44976562 3.78695312 14.55078125 4.16015625 C15.76314453 4.57587891 15.76314453 4.57587891 17 5 C15.02 5.99 15.02 5.99 13 7 C13 6.34 13 5.68 13 5 C12.01 5.33 11.02 5.66 10 6 C9.01 5.67 8.02 5.34 7 5 C7 4.34 7 3.68 7 3 C5.35 3 3.7 3 2 3 C1.34 2.01 0.68 1.02 0 0 Z" fill="#5A8970" transform="translate(129,175)"/>
<path d="M0 0 C0.66 0.33 1.32 0.66 2 1 C0.875 2.9375 0.875 2.9375 -1 5 C-4.1875 5.75 -4.1875 5.75 -7 6 C-7 6.66 -7 7.32 -7 8 C-8.32 7.67 -9.64 7.34 -11 7 C-7.37 4.69 -3.74 2.38 0 0 Z" fill="#325948" transform="translate(205,34)"/>
<path d="M0 0 C0.33 0 0.66 0 1 0 C1 3.63 1 7.26 1 11 C0.01 11.495 0.01 11.495 -1 12 C-1.72845102 8.28489978 -2.22620603 5.7087789 -1.0625 2.0625 C-0.711875 1.381875 -0.36125 0.70125 0 0 Z" fill="#B14B22" transform="translate(199,154)"/>
<path d="M0 0 C1.67654729 0.27942455 3.34608154 0.60828247 5 1 C5 1.99 5 2.98 5 4 C2.36 4 -0.28 4 -3 4 C-2.67 3.01 -2.34 2.02 -2 1 C-1.34 0.67 -0.68 0.34 0 0 Z" fill="#A8421B" transform="translate(208,169)"/>
<path d="M0 0 C0.33 0 0.66 0 1 0 C1 1.65 1 3.3 1 5 C1.66 5 2.32 5 3 5 C2.67 7.31 2.34 9.62 2 12 C1.34 12 0.68 12 0 12 C0 8.04 0 4.08 0 0 Z" fill="#2C6147" transform="translate(219,262)"/>
<path d="M0 0 C0.33 0 0.66 0 1 0 C1 5.61 1 11.22 1 17 C0.01 16.67 -0.98 16.34 -2 16 C-1.67 15.34 -1.34 14.68 -1 14 C-0.76970044 11.62876754 -0.58880058 9.25258057 -0.4375 6.875 C-0.35371094 5.59367187 -0.26992187 4.31234375 -0.18359375 2.9921875 C-0.09271484 1.51105469 -0.09271484 1.51105469 0 0 Z" fill="#E4E7E1" transform="translate(184,319)"/>
<path d="M0 0 C2.31 0.33 4.62 0.66 7 1 C5.1875 2.5 5.1875 2.5 3 4 C2.01 4 1.02 4 0 4 C0 2.68 0 1.36 0 0 Z" fill="#407C5E" transform="translate(119,173)"/>
</svg>