<svg xmlns="http://www.w3.org/2000/svg" xmlns:xlink="http://www.w3.org/1999/xlink" id="Layer_1" x="0px" y="0px" width="100%" viewBox="0 0 416 384" xml:space="preserve">
<path fill="#2D6B4F" opacity="1.000000" stroke="none" d="M175.218842,349.848755   C139.905731,328.663788 104.932869,307.620300 69.858566,286.747253   C66.547050,284.776520 65.579239,282.638947 65.430809,278.825226   C64.523079,255.503555 65.422188,232.189056 65.343582,208.873642   C65.249313,180.906357 65.476601,152.938080 65.444809,124.970360   C65.441322,121.901123 66.590019,120.147758 69.149384,118.592804   C101.895699,98.697701 134.588806,78.714973 167.291946,58.748821   C179.520813,51.282772 191.854446,43.979008 203.904053,36.233719   C208.225266,33.456112 211.457458,33.160290 216.058670,35.977478   C260.670410,63.291973 305.423767,90.375755 350.211487,117.401382   C353.878967,119.614388 355.497406,122.015572 355.482849,126.492943   C355.318237,177.151764 355.339111,227.811447 355.461334,278.470520   C355.470917,282.448364 354.270050,284.797943 350.792480,286.869507   C308.860901,311.847809 267.436035,337.672028 225.174988,362.100983   C223.633377,362.992126 222.261505,364.405975 220.178665,364.214752   C218.287445,362.952576 218.879425,360.943573 218.877792,359.222046   C218.847946,327.726624 218.441956,296.223145 219.034180,264.738586   C219.425629,243.928711 222.677643,223.569000 235.467133,206.022430   C244.255356,193.965424 255.643661,185.269852 269.399475,179.775436   C278.520325,176.132370 287.972748,173.393082 297.427246,170.698395   C300.928650,169.700455 302.353058,170.761459 302.654449,174.257492   C305.838715,211.192078 292.740479,245.095322 253.893692,259.422363   C249.987366,260.863068 246.010742,262.132629 242.175247,263.740417   C238.258331,265.382324 235.375885,268.141510 235.359894,272.720886   C235.290115,292.717743 235.315079,312.714905 235.321304,332.711975   C235.321564,333.519287 235.257050,334.401581 236.194031,335.045715   C237.956497,335.445221 239.156021,334.061768 240.519409,333.242523   C272.076874,314.279877 303.602264,295.263794 335.193878,276.358307   C337.840057,274.774750 338.800751,272.861176 338.797180,269.885986   C338.743103,227.907532 338.648132,185.929153 338.856537,143.951431   C338.878601,139.538300 337.491821,137.274719 333.737152,135.056580   C296.578979,113.136414 259.521027,91.041245 222.435287,68.988213   C217.043427,65.801811 213.057159,65.702675 207.589203,68.939781   C169.285217,91.740669 130.797714,114.247894 92.358414,136.841888   C89.141373,138.703476 87.872955,140.707733 87.882935,144.461670   C88.047028,205.429443 88.046715,266.397705 87.884048,327.365723   C87.874023,331.111267 89.113388,333.129395 92.323105,334.999268   C119.836800,350.862976 147.272476,366.851929 174.741425,382.783936   C175.560760,383.252380 176.508545,383.503113 177.399597,383.856537   C178.024353,372.480804 176.618988,361.125061 175.218842,349.848755  z"/>
<path fill="#7D2A03" opacity="1.000000" stroke="none" d="M197.744995,119.842369   C198.457962,110.950439 203.574371,105.900200 210.905518,106.415024   C217.997009,106.913017 223.694534,113.318146 223.141891,120.171127   C222.568069,127.287155 216.248932,132.760254 209.196655,132.249329   C203.512878,131.837555 199.464752,127.596069 197.744995,119.842369  z"/>
<path fill="#7D2A03" opacity="1.000000" stroke="none" d="M199.851364,155.124939   C205.374008,149.219086 210.639557,148.164978 216.557266,151.494110   C221.236252,154.126404 223.885071,159.731003 222.726303,164.567184   C221.535294,169.537918 218.550476,172.884583 213.564758,174.136795   C208.663101,175.367859 204.158508,174.436630 200.927917,170.332275   C197.322159,165.751282 196.574738,160.712265 199.851364,155.124939  z"/>
</svg>
